#!OML:ASF I:\golf\golf\golf 2\Subject 1\2002-09-07\Subject1.ASF
:FULLY-SPECIFIED
:DEGREES
287
root -6.10189 17.8066 1.34616 3.78103 65.1932 -16.1447
lowerback 4.59444 -9.28217 -7.94684
upperback 3.38212 -12.6003 2.12011
thorax 3.19599 -6.55246 6.5313
lowerneck -8.79749 17.0709 3.87141
upperneck 19.3383 26.2774 -13.3941
head 9.97012 11.3875 -1.78317
rclavicle 5.88403e-014 4.77083e-015
rhumerus 19.1561 -18.4728 -69.2987
rradius 95.3392
rwrist -24.4619
rhand -63.0089 17.6452
rfingers 7.12502
rthumb -35.0114 -8.9082
lclavicle 5.88403e-014 4.77083e-015
lhumerus 95.2704 -52.0189 54.5289
lradius 26.0079
lwrist -1.29288
lhand -15.9998 11.0384
lfingers 7.12502
lthumb -169.8 220.771
rfemur -40.706 5.81166 18.1472
rtibia 31.3793
rfoot -7.01869 6.18934
rtoes -5.23037
lfemur -28.5612 23.0279 -8.39259
ltibia 33.6724
lfoot -8.8315 20.7652
ltoes -9.82174
288
root -6.11517 17.8195 1.26508 2.97434 67.3533 -17.0512
lowerback 4.49179 -9.32738 -7.407
upperback 3.59472 -12.6344 2.46509
thorax 3.44515 -6.57922 6.56246
lowerneck -9.01571 16.5262 4.30457
upperneck 19.8027 25.5546 -13.4268
head 10.169 11.0418 -1.92996
rclavicle -7.79236e-014 2.38542e-014
rhumerus 17.8962 -17.6661 -69.8443
rradius 94.3651
rwrist -24.8309
rhand -63.1882 17.9976
rfingers 7.12502
rthumb -35.1814 -8.51588
lclavicle -7.79236e-014 2.38542e-014
lhumerus 93.2992 -52.8067 55.8483
lradius 25.3423
lwrist -2.03323
lhand -15.7952 11.6301
lfingers 7.12502
lthumb -169.602 221.353
rfemur -40.5766 5.29669 17.5999
rtibia 31.3052
rfoot -6.9146 4.32621
rtoes -6.42739
lfemur -29.6127 22.3277 -8.86841
ltibia 33.5418
lfoot -8.69709 19.5562
ltoes -10.5253
289
root -6.12889 17.832 1.18792 1.87218 69.6041 -18.1748
lowerback 4.378 -9.3474 -7.08283
upperback 3.80325 -12.6498 3.02483
thorax 3.79479 -6.61283 6.923
lowerneck -9.15592 15.9126 4.35412
upperneck 20.109 24.7751 -13.5283
head 10.2496 10.6609 -2.07889
rclavicle 1.94014e-013 -4.77083e-014
rhumerus 16.9044 -16.9448 -70.1501
rradius 93.4734
rwrist -25.977
rhand -63.4768 18.857
rfingers 7.12502
rthumb -35.4551 -7.59159
lclavicle 1.94014e-013 -4.77083e-014
lhumerus 91.2546 -53.4246 57.4272
lradius 24.65
lwrist -2.60146
lhand -15.6881 12.2186
lfingers 7.12502
lthumb -169.499 221.936
rfemur -40.3165 4.95947 16.9615
rtibia 31.2582
rfoot -6.84087 2.20224
rtoes -7.06273
lfemur -30.5265 21.3929 -9.2283
ltibia 33.3959
lfoot -8.22653 18.2047
ltoes -12.522
290
root -6.14312 17.8377 1.10733 0.698201 71.9657 -19.3031
lowerback 4.34758 -9.37689 -6.72499
upperback 3.98456 -12.68 3.49787
thorax 4.04478 -6.64413 7.19728
lowerneck -9.23647 15.2688 4.61227
upperneck 20.3219 23.9309 -13.748
head 10.3206 10.2636 -2.31082
rclavicle 3.97569e-014 -1.59028e-015
rhumerus 15.7006 -16.2598 -70.7157
rradius 92.6812
rwrist -26.9321
rhand -63.8746 18.1542
rfingers 7.12502
rthumb -35.8321 -8.20338
lclavicle 3.97569e-014 -1.59028e-015
lhumerus 89.0884 -54.0867 58.9453
lradius 24.0369
lwrist -3.08722
lhand -15.5426 12.9772
lfingers 7.12502
lthumb -169.359 222.688
rfemur -39.9744 4.45806 16.2546
rtibia 31.2444
rfoot -6.80504 0.085864
rtoes -8.77902
lfemur -31.3733 20.1739 -9.60985
ltibia 33.2438
lfoot -7.71464 16.8551
ltoes -14.3322
291
root -6.15677 17.8414 1.02589 -1.21834 74.3464 -21.1356
lowerback 4.31713 -9.36102 -6.07094
upperback 4.16524 -12.6369 3.86552
thorax 4.18712 -6.6178 7.21712
lowerneck -9.43246 14.5795 5.06296
upperneck 20.7583 23.0004 -13.8392
head 10.4848 9.83166 -2.53287
rclavicle -4.69132e-014 3.02153e-014
rhumerus 14.194 -15.6118 -71.5032
rradius 91.9732
rwrist -28.0763
rhand -64.3034 18.5217
rfingers 7.12502
rthumb -36.2383 -7.73592
lclavicle -4.69132e-014 3.02153e-014
lhumerus 86.5625 -54.9743 60.6675
lradius 23.502
lwrist -3.67524
lhand -15.0837 13.7919
lfingers 7.12502
lthumb -168.916 223.479
rfemur -39.5511 3.83192 15.7061
rtibia 31.2812
rfoot -6.68517 -1.8411
rtoes -10.3438
lfemur -32.1275 18.9566 -9.83879
ltibia 33.064
lfoot -7.479 15.3815
ltoes -15.2236
292
root -6.16814 17.8512 0.943606 -3.73377 76.7439 -23.572
lowerback 4.18059 -9.36458 -5.27008
upperback 4.30593 -12.6126 4.19512
thorax 4.30641 -6.58888 7.10564
lowerneck -9.75513 13.9168 5.36828
upperneck 21.3922 22.0951 -13.6746
head 10.6906 9.4095 -2.64228
rclavicle -6.59965e-014 -1.74931e-014
rhumerus 12.5221 -15.0078 -72.3695
rradius 91.2363
rwrist -29.7954
rhand -64.4939 20.1083
rfingers 7.12502
rthumb -36.4187 -6.10425
lclavicle -6.59965e-014 -1.74931e-014
lhumerus 83.6358 -55.8415 62.6428
lradius 22.9257
lwrist -4.07166
lhand -14.626 14.6162
lfingers 7.12502
lthumb -168.475 224.279
rfemur -39.1008 3.0151 15.2058
rtibia 31.3712
rfoot -6.56343 -3.55942
rtoes -11.3053
lfemur -32.7986 17.7062 -10.0677
ltibia 32.832
lfoot -7.51557 13.7902
ltoes -15.5614
293
root -6.17682 17.8613 0.859992 -6.88957 79.2187 -26.6489
lowerback 3.9269 -9.39395 -4.44177
upperback 4.39886 -12.6227 4.5021
thorax 4.43437 -6.57125 6.93821
lowerneck -10.0496 13.2192 5.57221
upperneck 21.9877 21.1428 -13.5073
head 10.8597 8.96827 -2.75184
rclavicle 4.29375e-014 -4.77083e-015
rhumerus 10.8181 -14.2986 -72.9225
rradius 90.3162
rwrist -31.5098
rhand -64.8438 20.4002
rfingers 7.12502
rthumb -36.7498 -5.7285
lclavicle 4.29375e-014 -4.77083e-015
lhumerus 80.5452 -56.6232 64.689
lradius 22.3125
lwrist -4.53515
lhand -14.3254 15.633
lfingers 7.12502
lthumb -168.185 225.28
rfemur -38.5994 2.09137 14.5953
rtibia 31.488
rfoot -6.45599 -5.25716
rtoes -12.0261
lfemur -33.4144 16.3536 -10.4227
ltibia 32.532
lfoot -7.41423 12.2027
ltoes -16.8011
294
root -6.18278 17.8681 0.777753 -12.8065 81.7155 -32.3819
lowerback 3.57046 -9.37768 -3.53139
upperback 4.47552 -12.5741 4.80633
thorax 4.57394 -6.51716 6.71282
lowerneck -10.0407 12.3806 5.89403
upperneck 22.5056 19.967 -13.3926
head 10.9347 8.45745 -2.95854
rclavicle 1.36764e-013 -3.81667e-014
rhumerus 8.85015 -13.5125 -73.3747
rradius 89.2922
rwrist -32.9949
rhand -65.1413 19.2632
rfingers 7.12502
rthumb -37.0313 -6.79321
lclavicle 1.36764e-013 -3.81667e-014
lhumerus 76.8759 -57.5177 67.2462
lradius 21.7278
lwrist -5.41435
lhand -14.1321 16.808
lfingers 7.12502
lthumb -167.998 226.444
rfemur -37.8782 1.25647 14.0362
rtibia 31.61
rfoot -6.3144 -7.0254
rtoes -12.488
lfemur -33.893 15.1884 -10.7515
ltibia 32.1525
lfoot -7.14209 10.3862
ltoes -19.0308
